<?xml version="1.0" encoding="UTF-8" standalone="no"?><!DOCTYPE svg PUBLIC "-//W3C//DTD SVG 1.1//EN" "http://www.w3.org/Graphics/SVG/1.1/DTD/svg11.dtd"><svg width="100%" height="100%" viewBox="0 0 146 57" version="1.1" xmlns="http://www.w3.org/2000/svg" xmlns:xlink="http://www.w3.org/1999/xlink" xml:space="preserve" style="fill-rule:evenodd;clip-rule:evenodd;stroke-linejoin:round;stroke-miterlimit:1.41421;"><g id="レイヤー-1"><g><path d="M34.337,18.57l-2.664,2.044c-1.469,-1.913 -3.233,-3.364 -5.292,-4.351c-2.058,-0.987 -4.32,-1.481 -6.784,-1.481c-2.694,0 -5.189,0.647 -7.485,1.94c-2.295,1.294 -4.075,3.031 -5.337,5.212c-1.263,2.181 -1.894,4.634 -1.894,7.358c0,4.118 1.411,7.554 4.235,10.309c2.824,2.755 6.386,4.132 10.688,4.132c4.729,0 8.685,-1.851 11.869,-5.556l2.664,2.021c-1.684,2.143 -3.785,3.799 -6.303,4.97c-2.518,1.171 -5.33,1.757 -8.437,1.757c-5.908,0 -10.569,-1.967 -13.982,-5.901c-2.862,-3.321 -4.293,-7.331 -4.293,-12.03c0,-4.944 1.733,-9.104 5.2,-12.478c3.467,-3.375 7.81,-5.063 13.029,-5.063c3.153,0 6,0.624 8.541,1.871c2.54,1.248 4.622,2.996 6.245,5.246" style="fill:#fff;fill-rule:nonzero;"/><rect x="40.099" y="11.453" width="3.214" height="34.622" style="fill:#fff;fill-rule:nonzero;"/><path d="M49.512,21.096l3.214,0l0,24.979l-3.214,0l0,-24.979Zm1.596,-10.286c0.731,0 1.356,0.261 1.874,0.781c0.518,0.521 0.778,1.148 0.778,1.883c0,0.719 -0.26,1.339 -0.778,1.859c-0.518,0.521 -1.143,0.781 -1.874,0.781c-0.717,0 -1.334,-0.26 -1.852,-0.781c-0.518,-0.52 -0.777,-1.14 -0.777,-1.859c0,-0.735 0.259,-1.362 0.777,-1.883c0.518,-0.52 1.135,-0.781 1.852,-0.781" style="fill:#fff;fill-rule:nonzero;"/><path d="M72.31,23.553c-2.779,0 -5.119,0.97 -7.021,2.912c-1.901,1.942 -2.851,4.357 -2.851,7.247c0,1.896 0.424,3.6 1.271,5.114c0.848,1.513 2.062,2.713 3.642,3.6c1.581,0.887 3.249,1.33 5.005,1.33c1.726,0 3.348,-0.447 4.868,-1.341c1.519,-0.895 2.729,-2.145 3.63,-3.75c0.901,-1.605 1.352,-3.287 1.352,-5.045c0,-1.773 -0.447,-3.455 -1.341,-5.045c-0.893,-1.59 -2.095,-2.824 -3.607,-3.704c-1.512,-0.879 -3.161,-1.318 -4.948,-1.318m-12.857,-2.457l3.214,0l0,4.592c1.27,-1.745 2.73,-3.054 4.381,-3.926c1.652,-0.873 3.494,-1.309 5.528,-1.309c3.547,0 6.582,1.278 9.105,3.834c2.523,2.557 3.785,5.633 3.785,9.23c0,3.673 -1.251,6.792 -3.751,9.355c-2.5,2.564 -5.515,3.846 -9.048,3.846c-1.988,0 -3.815,-0.413 -5.481,-1.24c-1.667,-0.826 -3.173,-2.058 -4.519,-3.696l0,13.431l-3.214,0l0,-34.117Z" style="fill:#fff;fill-rule:nonzero;"/><path d="M91.458,11.453l3.214,0l0,19.724l11.581,-10.081l4.72,0l-13.729,11.915l14.532,13.064l-4.524,0l-12.58,-11.247l0,11.247l-3.214,0l0,-34.622Z" style="fill:#88cfda;fill-rule:nonzero;"/><path d="M114.6,21.096l3.215,0l0,24.979l-3.215,0l0,-24.979Zm1.596,-10.286c0.732,0 1.356,0.261 1.874,0.781c0.518,0.521 0.778,1.148 0.778,1.883c0,0.719 -0.26,1.339 -0.778,1.859c-0.518,0.521 -1.142,0.781 -1.874,0.781c-0.716,0 -1.334,-0.26 -1.852,-0.781c-0.518,-0.52 -0.777,-1.14 -0.777,-1.859c0,-0.735 0.259,-1.362 0.777,-1.883c0.518,-0.52 1.136,-0.781 1.852,-0.781" style="fill:#88cfda;fill-rule:nonzero;"/><path d="M127.296,11.821l3.215,0l0,9.275l5.097,0l0,2.778l-5.097,0l0,22.201l-3.215,0l0,-22.201l-4.385,0l0,-2.778l4.385,0l0,-9.275Z" style="fill:#88cfda;fill-rule:nonzero;"/><path d="M139.98,37.383c0.742,0 1.467,0.19 2.174,0.571c0.707,0.381 1.258,0.926 1.652,1.635c0.395,0.709 0.592,1.448 0.592,2.218c0,0.762 -0.194,1.494 -0.583,2.197c-0.388,0.703 -0.933,1.249 -1.635,1.638c-0.701,0.388 -1.434,0.583 -2.2,0.583c-0.765,0 -1.499,-0.195 -2.2,-0.583c-0.701,-0.389 -1.247,-0.935 -1.638,-1.638c-0.39,-0.703 -0.586,-1.435 -0.586,-2.197c0,-0.77 0.199,-1.509 0.595,-2.218c0.397,-0.709 0.948,-1.254 1.655,-1.635c0.707,-0.381 1.432,-0.571 2.174,-0.571Zm0,0.732c-0.621,0 -1.225,0.16 -1.813,0.478c-0.588,0.318 -1.048,0.773 -1.38,1.365c-0.332,0.592 -0.498,1.208 -0.498,1.849c0,0.637 0.163,1.247 0.489,1.831c0.326,0.584 0.782,1.039 1.368,1.365c0.586,0.326 1.198,0.489 1.834,0.489c0.637,0 1.248,-0.163 1.834,-0.489c0.586,-0.326 1.041,-0.781 1.365,-1.365c0.325,-0.584 0.487,-1.194 0.487,-1.831c0,-0.641 -0.165,-1.257 -0.495,-1.849c-0.33,-0.592 -0.79,-1.047 -1.38,-1.365c-0.59,-0.318 -1.194,-0.478 -1.811,-0.478Zm-1.939,6.135l0,-4.758l1.635,0c0.558,0 0.962,0.044 1.212,0.132c0.25,0.088 0.45,0.241 0.598,0.46c0.149,0.219 0.223,0.451 0.223,0.697c0,0.348 -0.124,0.651 -0.372,0.909c-0.248,0.257 -0.577,0.402 -0.988,0.433c0.168,0.071 0.303,0.154 0.405,0.252c0.191,0.188 0.425,0.502 0.703,0.944l0.58,0.931l-0.938,0l-0.421,-0.75c-0.333,-0.59 -0.6,-0.959 -0.803,-1.107c-0.141,-0.11 -0.346,-0.164 -0.615,-0.164l-0.452,0l0,2.021l-0.767,0Zm0.767,-2.678l0.932,0c0.445,0 0.749,-0.066 0.911,-0.199c0.162,-0.133 0.243,-0.308 0.243,-0.527c0,-0.141 -0.039,-0.267 -0.117,-0.378c-0.078,-0.111 -0.186,-0.194 -0.325,-0.249c-0.139,-0.055 -0.396,-0.082 -0.771,-0.082l-0.873,0l0,1.435Z" style="fill:#fff;fill-rule:nonzero;"/></g></g></svg>